<svg xmlns="http://www.w3.org/2000/svg" version="1.1" xmlns:xlink="http://www.w3.org/1999/xlink" xmlns:svgjs="http://svgjs.dev/svgjs" width="1440" height="560" preserveAspectRatio="none" viewBox="0 0 1440 560">
<g mask="url(&quot;#SvgjsMask1004&quot;)" fill="none">
<rect width="1440" height="560" x="0" y="0" fill="rgba(36, 36, 36, 1)"></rect>
<path class="animated-line2" d="M838.34-111.56C665.38-59.1 623.6 424.82 364.25 434.24 104.9 443.66 12.61 312.04-109.84 311.04" stroke="rgba(31, 70, 105, 1)" stroke-width="2"></path>
<path class="animated-line" d="M857.54-2.04C725.81 9.16 657.05 267.52 409.04 278.14 161.04 288.76 78.42 421.93-39.45 423.74" stroke="rgba(31, 70, 105, 1)" stroke-width="2"></path>
<path class="animated-line" d="M892.85-4.64C752.23 6.73 681.25 276.01 411.48 289.88 141.72 303.75 60 482.17-69.88 485.88" stroke="rgba(31, 70, 105, 1)" stroke-width="2"></path>
<path class="animated-line2" d="M1280.31-50.39C1147.93-35.78 1069.73 252.71 843.62 254.75 617.5 256.79 625.27 184.75 406.92 184.75 188.58 184.75 80.8 254.53-29.77 254.75" stroke="rgba(31, 70, 105, 1)" stroke-width="2"></path>
<path class="animated-line3" d="M1210.13-54.75C1036.44-45.94 902.36 259.39 589.61 259.71 276.86 260.03 129.09 104.12-30.91 102.91" stroke="rgba(31, 70, 105, 1)" stroke-width="2"></path>
</g><defs><mask id="SvgjsMask1004"><rect width="1440" height="560" fill="#ffffff"></rect></mask></defs></svg>